<?xml version="1.0" encoding="utf-8"?>
<!-- Generator: Adobe Illustrator 26.0.1, SVG Export Plug-In . SVG Version: 6.00 Build 0)  -->
<svg version="1.1" id="Layer_1" xmlns="http://www.w3.org/2000/svg" xmlns:xlink="http://www.w3.org/1999/xlink" x="0px" y="0px"
	 viewBox="0 0 512 512" style="enable-background:new 0 0 512 512;" xml:space="preserve">
<style type="text/css">
	.st0{fill:#FFFFFF;}
</style>
<g>
	<path class="st0" d="M256,11c-81,0-147,65.9-147,147v100.3c0,74.1,55.1,135.6,126.5,145.5v56.4h-43.4c-11.3,0-20.4,9.1-20.4,20.4
		s9.1,20.4,20.4,20.4h127.7c11.3,0,20.4-9.1,20.4-20.4s-9.1-20.4-20.4-20.4h-43.4v-56.4c71.4-10,126.5-71.4,126.5-145.5V158
		C403,76.9,337,11,256,11L256,11z M256,364.4c-42.7,0-79.6-25.3-96.4-61.8h45.1c11.3,0,20.4-9.1,20.4-20.4s-9.1-20.4-20.4-20.4
		h-54.8c0-1.2-0.1-33.3-0.1-33.3h54.8c11.3,0,20.4-9.1,20.4-20.4c0-11.3-9.1-20.4-20.4-20.4h-54.8c0,0,0-32.1,0.1-33.3h54.8
		c11.3,0,20.4-9.1,20.4-20.4s-9.1-20.4-20.4-20.4h-45.1c16.8-36.4,53.7-61.8,96.4-61.8s79.6,25.3,96.4,61.8h-45.1
		c-11.3,0-20.4,9.1-20.4,20.4s9.1,20.4,20.4,20.4h54.8c0,1.2,0.1,33.3,0.1,33.3h-54.8c-11.3,0-20.4,9.1-20.4,20.4
		c0,11.3,9.1,20.4,20.4,20.4h54.8c0,0,0,32.1-0.1,33.3h-54.8c-11.3,0-20.4,9.1-20.4,20.4s9.1,20.4,20.4,20.4h45.1
		C335.6,339.1,298.7,364.4,256,364.4z"/>
</g>
</svg>
